<?xml version="1.0" encoding="UTF-8"?>
<!DOCTYPE svg PUBLIC "-//W3C//DTD SVG 1.1//EN" "http://www.w3.org/Graphics/SVG/1.1/DTD/svg11.dtd">
<!-- Creator: CorelDRAW 2018 -->
<svg xmlns="http://www.w3.org/2000/svg" xml:space="preserve" width="71.5mm" height="70mm" version="1.1" style="shape-rendering:geometricPrecision; text-rendering:geometricPrecision; image-rendering:optimizeQuality; fill-rule:evenodd; clip-rule:evenodd"
viewBox="0 0 7150 7000"
 xmlns:xlink="http://www.w3.org/1999/xlink">
 <defs>
  <style type="text/css">
   <![CDATA[
    .str0 {stroke:#F6BB34;stroke-width:20;stroke-miterlimit:22.9256}
    .fil3 {fill:url(#id0)}
    .fil16 {fill:url(#id1)}
    .fil12 {fill:url(#id2)}
    .fil11 {fill:url(#id3)}
    .fil8 {fill:url(#id4)}
    .fil18 {fill:url(#id5)}
    .fil9 {fill:url(#id6)}
    .fil13 {fill:url(#id7)}
    .fil5 {fill:url(#id8)}
    .fil6 {fill:url(#id9)}
    .fil0 {fill:url(#id10)}
    .fil14 {fill:url(#id11)}
    .fil1 {fill:url(#id12)}
    .fil10 {fill:url(#id13)}
    .fil4 {fill:url(#id14)}
    .fil19 {fill:url(#id15)}
    .fil17 {fill:url(#id16)}
    .fil15 {fill:url(#id17)}
    .fil7 {fill:url(#id18)}
    .fil2 {fill:url(#id19)}
   ]]>
  </style>
  <linearGradient id="id0" gradientUnits="userSpaceOnUse" x1="2913.02" y1="3064.27" x2="5634.48" y2="665.5">
   <stop offset="0" style="stop-opacity:1; stop-color:#F79633"/>
   <stop offset="0.439216" style="stop-opacity:1; stop-color:#F79633"/>
   <stop offset="0.619608" style="stop-opacity:1; stop-color:#F7CD33"/>
   <stop offset="1" style="stop-opacity:1; stop-color:#F79633"/>
  </linearGradient>
  <linearGradient id="id1" gradientUnits="userSpaceOnUse" x1="3629.8" y1="-57.57" x2="3536.75" y2="9096.42">
   <stop offset="0" style="stop-opacity:1; stop-color:#46C0BF"/>
   <stop offset="1" style="stop-opacity:1; stop-color:#263242"/>
  </linearGradient>
  <linearGradient id="id2" gradientUnits="userSpaceOnUse" xlink:href="#id1" x1="4592.6" y1="1721" x2="4515.2" y2="1904.34">
  </linearGradient>
  <linearGradient id="id3" gradientUnits="userSpaceOnUse" xlink:href="#id1" x1="4946.95" y1="1820.56" x2="4906.4" y2="2111.59">
  </linearGradient>
  <linearGradient id="id4" gradientUnits="userSpaceOnUse" x1="4587.82" y1="1707.2" x2="4090.72" y2="1387.98">
   <stop offset="0" style="stop-opacity:1; stop-color:#F79633"/>
   <stop offset="0.439216" style="stop-opacity:1; stop-color:#F79633"/>
   <stop offset="0.619608" style="stop-opacity:1; stop-color:#F7CD33"/>
   <stop offset="1" style="stop-opacity:1; stop-color:#F79633"/>
  </linearGradient>
  <linearGradient id="id5" gradientUnits="userSpaceOnUse" xlink:href="#id1" x1="3756.94" y1="2737.37" x2="3994.83" y2="2340.45">
  </linearGradient>
  <linearGradient id="id6" gradientUnits="userSpaceOnUse" x1="3768.9" y1="2752.37" x2="3975.67" y2="2355.46">
   <stop offset="0" style="stop-opacity:1; stop-color:#46C0BF"/>
   <stop offset="1" style="stop-opacity:1; stop-color:#263242"/>
  </linearGradient>
  <linearGradient id="id7" gradientUnits="userSpaceOnUse" xlink:href="#id1" x1="4118.48" y1="1739.3" x2="4210.37" y2="1975.03">
  </linearGradient>
  <linearGradient id="id8" gradientUnits="userSpaceOnUse" xlink:href="#id1" x1="5069.33" y1="4300.28" x2="4794.91" y2="5736.89">
  </linearGradient>
  <linearGradient id="id9" gradientUnits="userSpaceOnUse" xlink:href="#id1" x1="5532.87" y1="1199.57" x2="5261.95" y2="2692.07">
  </linearGradient>
  <linearGradient id="id10" gradientUnits="userSpaceOnUse" xlink:href="#id1" x1="5337.2" y1="3339.55" x2="1458.95" y2="7384.27">
  </linearGradient>
  <linearGradient id="id11" gradientUnits="userSpaceOnUse" xlink:href="#id1" x1="4170.05" y1="1820.57" x2="4210.6" y2="2111.6">
  </linearGradient>
  <linearGradient id="id12" gradientUnits="userSpaceOnUse" xlink:href="#id1" x1="5419.95" y1="3337.64" x2="1596.77" y2="7361.75">
  </linearGradient>
  <linearGradient id="id13" gradientUnits="userSpaceOnUse" xlink:href="#id1" x1="4998.52" y1="1739.29" x2="4906.63" y2="1975.02">
  </linearGradient>
  <linearGradient id="id14" gradientUnits="userSpaceOnUse" xlink:href="#id0" x1="2253.04" y1="6561.18" x2="3497.38" y2="4624.04">
  </linearGradient>
  <linearGradient id="id15" gradientUnits="userSpaceOnUse" xlink:href="#id1" x1="5076.68" y1="4300.28" x2="4802.26" y2="5736.89">
  </linearGradient>
  <linearGradient id="id16" gradientUnits="userSpaceOnUse" xlink:href="#id1" x1="5544.5" y1="1199.55" x2="5273.58" y2="2692.05">
  </linearGradient>
  <linearGradient id="id17" gradientUnits="userSpaceOnUse" xlink:href="#id4" x1="3827.21" y1="2261.2" x2="4943.08" y2="2007.51">
  </linearGradient>
  <linearGradient id="id18" gradientUnits="userSpaceOnUse" xlink:href="#id4" x1="4651.01" y1="1707.2" x2="5148.1" y2="1387.98">
  </linearGradient>
  <linearGradient id="id19" gradientUnits="userSpaceOnUse" xlink:href="#id0" x1="4171.59" y1="7013.4" x2="5339.15" y2="2474.97">
  </linearGradient>
 </defs>
 <g id="Capa_x0020_1">
  <metadata id="CorelCorpID_0Corel-Layer"/>
  <g id="_472835176">
   <path class="fil0" d="M2748.75 6787.07c624.77,-1.37 1119.94,-301.62 1503.42,-560.09 47.42,38.98 195.93,221.38 273.25,277.81 684.8,499.66 1096.64,-242.31 435.86,-278.76 506.07,228.38 85.88,430.13 -239.89,249.34 -120.11,-66.65 -310.91,-230.47 -358.09,-332.52 117.29,-61.35 210.49,-158.51 341.96,-207.9l44.88 -29.94c211.44,-214.43 1683.71,-224.02 1514.71,762.85 520.49,-240.74 -193.56,-1904.79 -1777.89,-791.27 -154.56,121.7 -298.55,226.19 -455.85,344.25 -138.74,104.12 -320.45,227.53 -505.77,312.67 -825.05,378.99 -1927.82,49.26 -2080.6,-868.89 -107.51,-646.14 353.36,-1268.52 793.83,-1601.47 79.07,-59.79 158.33,-113.71 236.08,-174.07 91.14,-70.75 524.02,-323.61 739.24,-487.54 156.25,-119.01 454.74,-271.84 555.42,-439.09 -57.29,23.76 -147.6,130.61 -261.84,217.98 -479.04,366.32 -1131.23,595.63 -1451.39,867.99 -32.99,28.07 -28.08,20.13 -64.17,46.04 -178.31,128.02 -379.72,368.73 -512.54,586.81 -650.55,1068.24 123.68,2108.33 1269.38,2105.8z"/>
   <path class="fil1" d="M2889.66 6767.6c624.77,-1.38 1119.93,-301.63 1503.41,-560.09 47.43,38.97 195.94,221.38 273.25,277.8 684.81,499.66 1067.72,-208.1 406.94,-244.56 506.07,228.39 114.81,395.93 -210.96,215.14 -120.11,-66.64 -310.92,-230.47 -358.09,-332.52 117.29,-61.34 210.49,-158.5 341.95,-207.9 46.23,95.25 87.02,114.88 154.55,183.41l-109.67 -213.35c211.44,-214.43 1599.17,-265.71 1430.16,721.16 520.49,-240.74 -109,-1863.1 -1693.34,-749.57 -154.55,121.69 -298.54,226.19 -455.84,344.24 -138.74,104.13 -320.45,227.54 -505.77,312.67 -825.05,379 -1927.82,49.26 -2080.6,-868.88 -107.51,-646.15 353.35,-1268.53 793.82,-1601.48 79.08,-59.78 158.34,-113.7 236.08,-174.07 91.15,-70.75 524.03,-323.61 739.25,-487.53 156.25,-119.01 313.83,-252.37 414.51,-419.62 -57.29,23.77 -147.6,130.6 -261.84,217.98 -479.04,366.32 -990.32,576.15 -1310.48,848.52 -33,28.06 -28.08,20.12 -64.17,46.03 -178.32,128.03 -379.72,368.73 -512.54,586.82 -650.55,1068.23 123.67,2108.33 1269.38,2105.8z"/>
   <path class="fil2 str0" d="M5218.81 2834.45l81.94 -68.1c26.67,291.94 -39.77,756.84 -126.62,1006.67 -82.77,238.08 -326.86,542.69 -468.14,670.33 43.3,-251.53 158.11,-375.98 225.59,-533.93 -191.23,117.34 -332.88,409.5 -376.27,739.65 -29.56,224.92 7.23,826.16 134.73,967.07l74.24 -36.06c-35.91,-286.32 -148.07,-510.28 -106.53,-855.68 13.41,-111.56 274.54,-348.55 417.34,-564.48 390.74,-590.86 263.09,-918.66 257.49,-1413.7 -1.29,-113.72 26.37,-128.3 1.62,-258.69 -19.95,54.1 -23.99,126.22 -45.2,188.68 -21.1,62.06 -50.59,107.91 -70.19,158.24z"/>
   <path class="fil3 str0" d="M4027.45 2325.75c-27.71,-61.88 -1.24,-7.45 -24.06,-43.62 -3.38,-5.36 -19.6,-28.46 -24.43,-35.39 -193.46,-277.46 -143.61,-494.56 37.31,-757.45 51.87,-75.37 68.74,-57.3 118.46,-124.02 98.23,-131.8 -5.15,-266.99 -113.72,-304.77 23.44,108.7 59.51,192.28 0.85,287.45 -54.21,-80.5 -135.02,-451.13 -109.24,-580.71 119.29,-0.65 233.42,170.66 355.78,312.9 110.76,128.76 143.55,-39.65 533.64,-20.37 179.45,8.88 239.24,65.82 362.78,91.33 90.29,-83.62 225.94,-330.65 397.57,-308.74 98.02,134.46 -26.7,391.6 -53.23,526.9 68.15,-81.86 267.59,-482.48 103.55,-598.37 -140.56,-99.3 -437.34,228.32 -477.22,278.46 -136.71,-14.49 -220.85,-57.56 -389.26,-56.49 -162.54,1.03 -278.04,48.15 -408.84,54.49l-198.33 -211.66c-71.37,-72.35 -123.79,-172.12 -265.69,-162.96 -86.48,103.95 -43.85,298.65 -14.62,444.17 58.01,288.66 109.35,289.9 23.5,443.55 -180.85,323.66 -96.38,600.73 145.2,765.3z"/>
   <path class="fil4 str0" d="M2651.72 4655.85c366.11,98.14 504.93,104.97 662.96,388.53 198.46,356.1 75.8,693.86 85.26,920.4 30.69,-200.22 222.89,-547.93 35,-966.66 -196.74,-438.47 -747.81,-381.78 -783.22,-342.27z"/>
   <path class="fil5" d="M4876.95 5524.79c39.49,-99.33 -35.83,-346.82 58.09,-741.17 56.69,-238.04 144.48,-414.45 211.82,-617.27 -107.29,159.47 -246.24,363.13 -319.11,585.25 -77.16,235.21 -62.27,713.75 49.2,773.19z"/>
   <path class="fil6" d="M5296.12 2471.71c94.95,-42.14 198.7,-150.86 248.7,-247.8 67.62,-131.08 80.97,-281.05 45.62,-442 -26.73,-121.65 -80.74,-251.1 -138.48,-343.87 -110.14,-176.96 -108.05,-136.48 -56.44,-377.61 -126.34,47.89 -207.16,207.37 -96.42,325.85 91.74,98.16 125.69,110.43 197.89,324.28 157.17,465.51 -147.55,660.88 -200.87,761.15z"/>
   <path class="fil7" d="M4801.65 1579.76c70.7,-27.76 128.5,-75.22 201.74,-94.7 70.87,-18.85 127.38,-3.07 184.08,-9.19 -54.42,-0.81 -113.43,-46.88 -199.77,-29.16 -85.85,17.61 -153.59,71.94 -186.05,133.05z"/>
   <path class="fil8" d="M4437.17 1579.76c-70.7,-27.76 -128.5,-75.22 -201.74,-94.7 -70.86,-18.85 -127.38,-3.07 -184.08,-9.19 54.42,-0.81 113.43,-46.88 199.77,-29.16 85.85,17.61 153.59,71.94 186.05,133.05z"/>
   <path class="fil9" d="M3921.14 2327.03c-22.02,104.02 -73.52,197.13 -83.76,301.86 -9.91,101.33 23.88,172.11 28.08,250.26 -13.08,-72.83 -88.4,-137.09 -83.43,-258.84 4.95,-121.06 63.55,-229.75 139.11,-293.28z"/>
   <g>
    <path class="fil10" d="M5095.39 1879.42c-49.91,-101.25 -145.86,-132.39 -265.69,-100.55 114.88,23.81 185.58,26.79 265.69,100.55z"/>
    <path class="fil11" d="M5051.87 2020.22c-25.62,-142.63 -149.73,-189.96 -245.28,-176.78 68.23,16.79 194.47,112.32 245.28,176.78z"/>
    <path class="fil12" d="M4489.11 1851.12l45.18 -80.59c20.89,24.15 46.73,57.04 61.54,82.72 159.4,-201.05 -151.98,-172.75 -106.72,-2.13z"/>
    <g>
     <path class="fil13" d="M4021.62 1879.43c49.9,-101.25 145.86,-132.39 265.68,-100.55 -114.88,23.81 -185.57,26.79 -265.68,100.55z"/>
     <path class="fil14" d="M4065.13 2020.23c25.62,-142.63 149.73,-189.96 245.28,-176.78 -68.23,16.79 -194.47,112.32 -245.28,176.78z"/>
    </g>
   </g>
   <path class="fil15" d="M4617.44 2072.94c77.68,52.75 248.81,162.49 342.62,80.99 -84.11,-0.92 -146.13,-12.52 -205.4,-43.9 -408.5,-216.17 -70.18,-21.8 -569.93,-16.33 108.16,93.97 331.37,-26.82 383.34,-60.82l49.37 40.06z"/>
   <path class="fil16" d="M1460.34 649.25c1565.19,-1121.19 3737.57,-753.77 4852.17,820.66 1114.61,1574.43 749.35,3759.65 -815.84,4880.84 -1565.18,1121.19 -3737.56,753.77 -4852.17,-820.67 -1114.6,-1574.43 -749.34,-3759.64 815.84,-4880.83zm417.7 -18.24c1501.21,-1075.36 3584.8,-722.96 4653.84,787.12 1069.05,1510.08 718.72,3605.98 -782.49,4681.34 -1501.21,1075.37 -3584.8,722.96 -4653.85,-787.12 -1069.05,-1510.08 -718.71,-3605.97 782.5,-4681.34z"/>
   <path class="fil17" d="M5307.76 2471.69c94.94,-42.14 198.69,-150.86 248.69,-247.8 67.62,-131.08 80.97,-281.05 45.62,-442 -26.72,-121.65 -80.74,-251.1 -138.48,-343.87 -110.14,-176.96 -108.05,-136.48 -56.44,-377.61 -126.34,47.89 -207.16,207.37 -96.42,325.85 91.75,98.16 125.69,110.43 197.89,324.28 157.17,465.51 -147.55,660.87 -200.86,761.15z"/>
   <path class="fil18" d="M3932.09 2312.02c-25.33,104.03 -84.58,197.14 -96.36,301.86 -11.4,101.33 27.47,172.11 32.31,250.26 -15.05,-72.83 -101.71,-137.08 -95.99,-258.84 5.69,-121.05 73.11,-229.75 160.04,-293.28z"/>
   <path class="fil19" d="M4884.3 5524.79c39.49,-99.33 -35.83,-346.82 58.09,-741.17 56.69,-238.04 144.48,-414.45 211.82,-617.27 -107.29,159.47 -246.24,363.13 -319.11,585.25 -77.16,235.21 -62.27,713.75 49.2,773.19z"/>
  </g>
 </g>
</svg>
