<?xml version="1.0" encoding="UTF-8"?>
<!DOCTYPE svg PUBLIC "-//W3C//DTD SVG 1.1//EN" "http://www.w3.org/Graphics/SVG/1.1/DTD/svg11.dtd">
<!-- Creator: CorelDRAW 2018 -->
<svg xmlns="http://www.w3.org/2000/svg" xml:space="preserve" width="250mm" height="70mm" version="1.1" style="shape-rendering:geometricPrecision; text-rendering:geometricPrecision; image-rendering:optimizeQuality; fill-rule:evenodd; clip-rule:evenodd"
viewBox="0 0 25000 7000"
 xmlns:xlink="http://www.w3.org/1999/xlink">
 <defs>
  <style type="text/css">
   <![CDATA[
    .str0 {stroke:#F6BB34;stroke-width:20;stroke-miterlimit:22.9256}
    .fil3 {fill:url(#id0)}
    .fil13 {fill:url(#id1)}
    .fil14 {fill:url(#id2)}
    .fil16 {fill:url(#id3)}
    .fil12 {fill:url(#id4)}
    .fil10 {fill:url(#id5)}
    .fil24 {fill:url(#id6)}
    .fil11 {fill:url(#id7)}
    .fil8 {fill:url(#id8)}
    .fil15 {fill:url(#id9)}
    .fil2 {fill:url(#id10)}
    .fil7 {fill:url(#id11)}
    .fil9 {fill:url(#id12)}
    .fil6 {fill:url(#id13)}
    .fil0 {fill:url(#id14)}
    .fil25 {fill:url(#id15)}
    .fil5 {fill:url(#id16)}
    .fil23 {fill:url(#id17)}
    .fil1 {fill:url(#id18)}
    .fil4 {fill:url(#id19)}
    .fil19 {fill:url(#id20);fill-rule:nonzero}
    .fil22 {fill:url(#id21);fill-rule:nonzero}
    .fil20 {fill:url(#id22);fill-rule:nonzero}
    .fil21 {fill:url(#id23);fill-rule:nonzero}
    .fil18 {fill:url(#id24);fill-rule:nonzero}
    .fil17 {fill:url(#id25);fill-rule:nonzero}
   ]]>
  </style>
  <linearGradient id="id0" gradientUnits="userSpaceOnUse" x1="2913.96" y1="3064.27" x2="5635.42" y2="665.5">
   <stop offset="0" style="stop-opacity:1; stop-color:#F79633"/>
   <stop offset="0.439216" style="stop-opacity:1; stop-color:#F79633"/>
   <stop offset="0.619608" style="stop-opacity:1; stop-color:#F7CD33"/>
   <stop offset="1" style="stop-opacity:1; stop-color:#F79633"/>
  </linearGradient>
  <linearGradient id="id1" gradientUnits="userSpaceOnUse" x1="4119.42" y1="1739.3" x2="4211.31" y2="1975.03">
   <stop offset="0" style="stop-opacity:1; stop-color:#46C0BF"/>
   <stop offset="1" style="stop-opacity:1; stop-color:#263242"/>
  </linearGradient>
  <linearGradient id="id2" gradientUnits="userSpaceOnUse" xlink:href="#id1" x1="4170.99" y1="1820.57" x2="4211.54" y2="2111.6">
  </linearGradient>
  <linearGradient id="id3" gradientUnits="userSpaceOnUse" xlink:href="#id1" x1="3630.74" y1="-57.57" x2="3537.69" y2="9096.42">
  </linearGradient>
  <linearGradient id="id4" gradientUnits="userSpaceOnUse" xlink:href="#id1" x1="4593.54" y1="1721" x2="4516.14" y2="1904.34">
  </linearGradient>
  <linearGradient id="id5" gradientUnits="userSpaceOnUse" xlink:href="#id1" x1="4999.46" y1="1739.29" x2="4907.57" y2="1975.02">
  </linearGradient>
  <linearGradient id="id6" gradientUnits="userSpaceOnUse" xlink:href="#id1" x1="3757.88" y1="2737.37" x2="3995.77" y2="2340.45">
  </linearGradient>
  <linearGradient id="id7" gradientUnits="userSpaceOnUse" xlink:href="#id1" x1="4947.89" y1="1820.56" x2="4907.34" y2="2111.59">
  </linearGradient>
  <linearGradient id="id8" gradientUnits="userSpaceOnUse" x1="4588.76" y1="1707.2" x2="4091.66" y2="1387.98">
   <stop offset="0" style="stop-opacity:1; stop-color:#F79633"/>
   <stop offset="0.439216" style="stop-opacity:1; stop-color:#F79633"/>
   <stop offset="0.619608" style="stop-opacity:1; stop-color:#F7CD33"/>
   <stop offset="1" style="stop-opacity:1; stop-color:#F79633"/>
  </linearGradient>
  <linearGradient id="id9" gradientUnits="userSpaceOnUse" xlink:href="#id8" x1="3828.15" y1="2261.2" x2="4944.02" y2="2007.51">
  </linearGradient>
  <linearGradient id="id10" gradientUnits="userSpaceOnUse" xlink:href="#id0" x1="4172.53" y1="7013.4" x2="5340.09" y2="2474.97">
  </linearGradient>
  <linearGradient id="id11" gradientUnits="userSpaceOnUse" xlink:href="#id8" x1="4651.95" y1="1707.2" x2="5149.04" y2="1387.98">
  </linearGradient>
  <linearGradient id="id12" gradientUnits="userSpaceOnUse" x1="3769.84" y1="2752.37" x2="3976.61" y2="2355.46">
   <stop offset="0" style="stop-opacity:1; stop-color:#46C0BF"/>
   <stop offset="1" style="stop-opacity:1; stop-color:#263242"/>
  </linearGradient>
  <linearGradient id="id13" gradientUnits="userSpaceOnUse" xlink:href="#id1" x1="5533.81" y1="1199.57" x2="5262.89" y2="2692.07">
  </linearGradient>
  <linearGradient id="id14" gradientUnits="userSpaceOnUse" xlink:href="#id1" x1="5338.14" y1="3339.55" x2="1459.89" y2="7384.27">
  </linearGradient>
  <linearGradient id="id15" gradientUnits="userSpaceOnUse" xlink:href="#id1" x1="5077.62" y1="4300.28" x2="4803.2" y2="5736.89">
  </linearGradient>
  <linearGradient id="id16" gradientUnits="userSpaceOnUse" xlink:href="#id1" x1="5070.27" y1="4300.28" x2="4795.85" y2="5736.89">
  </linearGradient>
  <linearGradient id="id17" gradientUnits="userSpaceOnUse" xlink:href="#id1" x1="5545.44" y1="1199.55" x2="5274.52" y2="2692.05">
  </linearGradient>
  <linearGradient id="id18" gradientUnits="userSpaceOnUse" xlink:href="#id1" x1="5420.89" y1="3337.64" x2="1597.71" y2="7361.75">
  </linearGradient>
  <linearGradient id="id19" gradientUnits="userSpaceOnUse" xlink:href="#id0" x1="2253.98" y1="6561.18" x2="3498.32" y2="4624.04">
  </linearGradient>
  <linearGradient id="id20" gradientUnits="userSpaceOnUse" xlink:href="#id1" x1="15252.48" y1="2934.99" x2="12831.69" y2="6983.87">
  </linearGradient>
  <linearGradient id="id21" gradientUnits="userSpaceOnUse" xlink:href="#id1" x1="24341.4" y1="2906.42" x2="22010.47" y2="7030.58">
  </linearGradient>
  <linearGradient id="id22" gradientUnits="userSpaceOnUse" xlink:href="#id0" x1="15466.67" y1="8057.81" x2="18796.18" y2="2627.87">
  </linearGradient>
  <linearGradient id="id23" gradientUnits="userSpaceOnUse" xlink:href="#id0" x1="17838.97" y1="8057.81" x2="21809.95" y2="2627.87">
  </linearGradient>
  <linearGradient id="id24" gradientUnits="userSpaceOnUse" xlink:href="#id1" x1="11674.68" y1="3011.96" x2="11373.4" y2="6970.54">
  </linearGradient>
  <linearGradient id="id25" gradientUnits="userSpaceOnUse" xlink:href="#id1" x1="9994.53" y1="3016.18" x2="7737.6" y2="7019.91">
  </linearGradient>
 </defs>
 <g id="Capa_x0020_1">
  <metadata id="CorelCorpID_0Corel-Layer"/>
  <g id="_471578232">
   <path class="fil0" d="M2749.69 6787.07c624.77,-1.37 1119.94,-301.62 1503.42,-560.09 47.42,38.98 195.93,221.38 273.25,277.81 684.8,499.66 1096.64,-242.31 435.86,-278.76 506.07,228.38 85.88,430.13 -239.89,249.34 -120.11,-66.65 -310.91,-230.47 -358.09,-332.52 117.29,-61.35 210.49,-158.51 341.96,-207.9l44.88 -29.94c211.44,-214.43 1683.71,-224.02 1514.71,762.85 520.49,-240.74 -193.56,-1904.79 -1777.89,-791.27 -154.56,121.7 -298.55,226.19 -455.85,344.25 -138.74,104.12 -320.45,227.53 -505.77,312.67 -825.05,378.99 -1927.82,49.26 -2080.6,-868.89 -107.51,-646.14 353.36,-1268.52 793.83,-1601.47 79.07,-59.79 158.33,-113.71 236.08,-174.07 91.14,-70.75 524.02,-323.61 739.24,-487.54 156.25,-119.01 454.74,-271.84 555.42,-439.09 -57.29,23.76 -147.6,130.61 -261.84,217.98 -479.04,366.32 -1131.23,595.63 -1451.39,867.99 -32.99,28.07 -28.08,20.13 -64.17,46.04 -178.31,128.02 -379.72,368.73 -512.54,586.81 -650.55,1068.24 123.68,2108.33 1269.38,2105.8z"/>
   <path class="fil1" d="M2890.6 6767.6c624.77,-1.38 1119.93,-301.63 1503.41,-560.09 47.43,38.97 195.94,221.38 273.25,277.8 684.81,499.66 1067.72,-208.1 406.94,-244.56 506.07,228.39 114.81,395.93 -210.96,215.14 -120.11,-66.64 -310.92,-230.47 -358.09,-332.52 117.29,-61.34 210.49,-158.5 341.95,-207.9 46.23,95.25 87.02,114.88 154.55,183.41l-109.67 -213.35c211.44,-214.43 1599.17,-265.71 1430.16,721.16 520.49,-240.74 -109,-1863.1 -1693.34,-749.57 -154.55,121.69 -298.54,226.19 -455.84,344.24 -138.74,104.13 -320.45,227.54 -505.77,312.67 -825.05,379 -1927.82,49.26 -2080.6,-868.88 -107.51,-646.15 353.35,-1268.53 793.82,-1601.48 79.08,-59.78 158.34,-113.7 236.08,-174.07 91.15,-70.75 524.03,-323.61 739.25,-487.53 156.25,-119.01 313.83,-252.37 414.51,-419.62 -57.29,23.77 -147.6,130.6 -261.84,217.98 -479.04,366.32 -990.32,576.15 -1310.48,848.52 -33,28.06 -28.08,20.12 -64.17,46.03 -178.32,128.03 -379.72,368.73 -512.54,586.82 -650.55,1068.23 123.67,2108.33 1269.38,2105.8z"/>
   <path class="fil2 str0" d="M5219.75 2834.45l81.94 -68.1c26.67,291.94 -39.77,756.84 -126.62,1006.67 -82.77,238.08 -326.86,542.69 -468.14,670.33 43.3,-251.53 158.11,-375.98 225.59,-533.93 -191.23,117.34 -332.88,409.5 -376.27,739.65 -29.56,224.92 7.23,826.16 134.73,967.07l74.24 -36.06c-35.91,-286.32 -148.07,-510.28 -106.53,-855.68 13.41,-111.56 274.54,-348.55 417.34,-564.48 390.74,-590.86 263.09,-918.66 257.49,-1413.7 -1.29,-113.72 26.37,-128.3 1.62,-258.69 -19.95,54.1 -23.99,126.22 -45.2,188.68 -21.1,62.06 -50.59,107.91 -70.19,158.24z"/>
   <path class="fil3 str0" d="M4028.39 2325.75c-27.71,-61.88 -1.24,-7.45 -24.06,-43.62 -3.38,-5.36 -19.6,-28.46 -24.43,-35.39 -193.46,-277.46 -143.61,-494.56 37.31,-757.45 51.87,-75.37 68.74,-57.3 118.46,-124.02 98.23,-131.8 -5.15,-266.99 -113.72,-304.77 23.44,108.7 59.51,192.28 0.85,287.45 -54.21,-80.5 -135.02,-451.13 -109.24,-580.71 119.29,-0.65 233.42,170.66 355.78,312.9 110.76,128.76 143.55,-39.65 533.64,-20.37 179.45,8.88 239.24,65.82 362.78,91.33 90.29,-83.62 225.94,-330.65 397.57,-308.74 98.02,134.46 -26.7,391.6 -53.23,526.9 68.15,-81.86 267.59,-482.48 103.55,-598.37 -140.56,-99.3 -437.34,228.32 -477.22,278.46 -136.71,-14.49 -220.85,-57.56 -389.26,-56.49 -162.54,1.03 -278.04,48.15 -408.84,54.49l-198.33 -211.66c-71.37,-72.35 -123.79,-172.12 -265.69,-162.96 -86.48,103.95 -43.85,298.65 -14.62,444.17 58.01,288.66 109.35,289.9 23.5,443.55 -180.85,323.66 -96.38,600.73 145.2,765.3z"/>
   <path class="fil4 str0" d="M2652.66 4655.85c366.11,98.14 504.93,104.97 662.96,388.53 198.46,356.1 75.8,693.86 85.26,920.4 30.69,-200.22 222.89,-547.93 35,-966.66 -196.74,-438.47 -747.81,-381.78 -783.22,-342.27z"/>
   <path class="fil5" d="M4877.89 5524.79c39.49,-99.33 -35.83,-346.82 58.09,-741.17 56.69,-238.04 144.48,-414.45 211.82,-617.27 -107.29,159.47 -246.24,363.13 -319.11,585.25 -77.16,235.21 -62.27,713.75 49.2,773.19z"/>
   <path class="fil6" d="M5297.06 2471.71c94.95,-42.14 198.7,-150.86 248.7,-247.8 67.62,-131.08 80.97,-281.05 45.62,-442 -26.73,-121.65 -80.74,-251.1 -138.48,-343.87 -110.14,-176.96 -108.05,-136.48 -56.44,-377.61 -126.34,47.89 -207.16,207.37 -96.42,325.85 91.74,98.16 125.69,110.43 197.89,324.28 157.17,465.51 -147.55,660.88 -200.87,761.15z"/>
   <path class="fil7" d="M4802.59 1579.76c70.7,-27.76 128.5,-75.22 201.74,-94.7 70.87,-18.85 127.38,-3.07 184.08,-9.19 -54.42,-0.81 -113.43,-46.88 -199.77,-29.16 -85.85,17.61 -153.59,71.94 -186.05,133.05z"/>
   <path class="fil8" d="M4438.11 1579.76c-70.7,-27.76 -128.5,-75.22 -201.74,-94.7 -70.86,-18.85 -127.38,-3.07 -184.08,-9.19 54.42,-0.81 113.43,-46.88 199.77,-29.16 85.85,17.61 153.59,71.94 186.05,133.05z"/>
   <path class="fil9" d="M3922.08 2327.03c-22.02,104.02 -73.52,197.13 -83.76,301.86 -9.91,101.33 23.88,172.11 28.08,250.26 -13.08,-72.83 -88.4,-137.09 -83.43,-258.84 4.95,-121.06 63.55,-229.75 139.11,-293.28z"/>
   <g>
    <path class="fil10" d="M5096.33 1879.42c-49.91,-101.25 -145.86,-132.39 -265.69,-100.55 114.88,23.81 185.58,26.79 265.69,100.55z"/>
    <path class="fil11" d="M5052.81 2020.22c-25.62,-142.63 -149.73,-189.96 -245.28,-176.78 68.23,16.79 194.47,112.32 245.28,176.78z"/>
    <path class="fil12" d="M4490.05 1851.12l45.18 -80.59c20.89,24.15 46.73,57.04 61.54,82.72 159.4,-201.05 -151.98,-172.75 -106.72,-2.13z"/>
    <g>
     <path class="fil13" d="M4022.56 1879.43c49.9,-101.25 145.86,-132.39 265.68,-100.55 -114.88,23.81 -185.57,26.79 -265.68,100.55z"/>
     <path class="fil14" d="M4066.07 2020.23c25.62,-142.63 149.73,-189.96 245.28,-176.78 -68.23,16.79 -194.47,112.32 -245.28,176.78z"/>
    </g>
   </g>
   <path class="fil15" d="M4618.38 2072.94c77.68,52.75 248.81,162.49 342.62,80.99 -84.11,-0.92 -146.13,-12.52 -205.4,-43.9 -408.5,-216.17 -70.18,-21.8 -569.93,-16.33 108.16,93.97 331.37,-26.82 383.34,-60.82l49.37 40.06z"/>
   <path class="fil16" d="M1461.28 649.25c1565.19,-1121.19 3737.57,-753.77 4852.17,820.66 1114.61,1574.43 749.35,3759.65 -815.84,4880.84 -1565.18,1121.19 -3737.56,753.77 -4852.17,-820.67 -1114.6,-1574.43 -749.34,-3759.64 815.84,-4880.83zm417.7 -18.24c1501.21,-1075.36 3584.8,-722.96 4653.84,787.12 1069.05,1510.08 718.72,3605.98 -782.49,4681.34 -1501.21,1075.37 -3584.8,722.96 -4653.85,-787.12 -1069.05,-1510.08 -718.71,-3605.97 782.5,-4681.34z"/>
   <path class="fil17" d="M9132.45 6428.76c-207.53,0 -403.25,-39.13 -587.2,-117.41 -183.93,-78.28 -345.46,-182.66 -484.59,-313.12 -139.14,-130.46 -248.79,-284.65 -328.97,-462.56 -80.18,-177.91 -120.27,-366.48 -120.27,-565.75l0 -2327.01 403.25 0 0 2327.01c0,147.08 29.48,283.47 88.43,409.2 58.96,125.72 139.13,236.02 242.89,330.9 103.76,94.89 222.85,169.61 356.08,224.16 134.42,54.56 278.27,81.84 433.91,81.84 150.92,0 292.41,-27.28 426.83,-81.84 133.23,-54.55 249.97,-129.27 349,-224.16 99.05,-94.88 175.69,-205.18 232.28,-330.9 56.61,-125.73 84.9,-262.12 84.9,-409.2l0 -2327.01 403.24 0 0 2327.01c0,199.27 -40.09,387.84 -120.26,565.75 -80.18,177.91 -187.47,332.1 -321.89,462.56 -134.41,130.46 -293.59,234.84 -477.53,313.12 -183.93,78.28 -377.3,117.41 -580.1,117.41z"/>
   <polygon class="fil18" points="11759.8,2642.91 11759.8,6386.07 11356.56,6386.07 11356.56,2642.91 "/>
   <path class="fil19" d="M15936.48 2578.86l0 3807.21 -403.25 0 0 -2682.85c-66.03,85.4 -133.24,171.98 -200.45,259.75 -68.38,87.77 -135.59,174.35 -201.62,259.75l-804.13 1003.39 -1227.42 -1544.23 0 2704.19 -403.25 0 0 -3828.56 1627.13 2028.14 1612.99 -2006.79z"/>
   <polygon class="fil20 str0" points="16533.46,6386.07 16533.46,2642.91 18726.55,2642.91 18726.55,3041.42 16936.71,3041.42 16936.71,3994.99 18139.37,3994.99 18139.37,4393.51 16936.71,4393.51 16936.71,5973.33 18846.82,5973.33 18846.82,6386.07 "/>
   <path class="fil21 str0" d="M19500.39 4991.28l0 1394.79 -389.1 0 0 -3743.16 1082.4 0c165.08,0 318.36,33.2 459.85,99.62 141.48,66.42 262.93,154.18 364.33,263.3 101.4,109.11 181.58,232.47 240.53,372.42 58.95,139.96 88.43,285.84 88.43,437.66 0,232.46 -53.05,442.39 -159.17,628.6 -106.12,187.39 -265.29,326.16 -477.53,416.3l332.5 428.17c56.6,71.15 121.44,155.36 194.55,252.62 73.1,97.26 148.57,196.88 226.38,298.88 77.82,102 152.1,201.64 222.85,296.52 70.74,94.88 132.05,177.9 183.93,249.07l-509.36 0 -1075.32 -1394.79 -785.27 0zm0 -1949.86l0 1537.11 693.3 0c103.76,0 202.8,-20.16 297.13,-60.48 94.32,-40.34 175.68,-93.7 244.07,-162.5 68.39,-68.79 122.62,-149.43 162.71,-240.76 40.1,-92.51 60.14,-189.77 60.14,-294.14 0,-109.11 -20.04,-209.94 -60.14,-304.81 -40.09,-94.89 -94.32,-176.73 -162.71,-247.89 -68.39,-71.17 -149.75,-125.72 -244.07,-166.05 -94.33,-40.32 -193.37,-60.48 -297.13,-60.48l-693.3 0z"/>
   <path class="fil22" d="M23889.3 4671.04c-75.45,-204 -149.74,-396.14 -222.85,-576.42 -73.1,-180.27 -149.74,-377.16 -229.91,-590.65 -28.3,71.16 -56.61,144.7 -84.9,220.61 -28.3,75.9 -58.95,158.92 -91.97,249.07 -33.02,90.14 -70.75,192.14 -113.19,305.99 -42.44,113.87 -89.61,244.34 -141.49,391.4l884.31 0zm-452.76 -2149.12c254.68,597.77 515.25,1221.64 781.73,1871.59 266.47,649.95 527.05,1288.05 781.73,1914.28l-360.81 99.63 -594.25 -1380.56 -1195.59 0c-94.33,227.72 -192.19,461.37 -293.59,700.95 -101.4,239.59 -199.27,470.86 -293.59,693.84l-382.02 -99.63 1556.39 -3800.1z"/>
   <path class="fil23" d="M5308.7 2471.69c94.94,-42.14 198.69,-150.86 248.69,-247.8 67.62,-131.08 80.97,-281.05 45.62,-442 -26.72,-121.65 -80.74,-251.1 -138.48,-343.87 -110.14,-176.96 -108.05,-136.48 -56.44,-377.61 -126.34,47.89 -207.16,207.37 -96.42,325.85 91.75,98.16 125.69,110.43 197.89,324.28 157.17,465.51 -147.55,660.87 -200.86,761.15z"/>
   <path class="fil24" d="M3933.03 2312.02c-25.33,104.03 -84.58,197.14 -96.36,301.86 -11.4,101.33 27.47,172.11 32.31,250.26 -15.05,-72.83 -101.71,-137.08 -95.99,-258.84 5.69,-121.05 73.11,-229.75 160.04,-293.28z"/>
   <path class="fil25" d="M4885.24 5524.79c39.49,-99.33 -35.83,-346.82 58.09,-741.17 56.69,-238.04 144.48,-414.45 211.82,-617.27 -107.29,159.47 -246.24,363.13 -319.11,585.25 -77.16,235.21 -62.27,713.75 49.2,773.19z"/>
  </g>
 </g>
</svg>
