<?xml version="1.0" encoding="UTF-8"?>
<!DOCTYPE svg PUBLIC "-//W3C//DTD SVG 1.1//EN" "http://www.w3.org/Graphics/SVG/1.1/DTD/svg11.dtd">
<!-- Creator: CorelDRAW 2018 -->
<svg xmlns="http://www.w3.org/2000/svg" xml:space="preserve" width="279.4mm" height="215.9mm" version="1.1" style="shape-rendering:geometricPrecision; text-rendering:geometricPrecision; image-rendering:optimizeQuality; fill-rule:evenodd; clip-rule:evenodd"
viewBox="0 0 27940 21590"
 xmlns:xlink="http://www.w3.org/1999/xlink">
 <defs>
  <style type="text/css">
   <![CDATA[
    .str0 {stroke:#F6BB34;stroke-width:20;stroke-miterlimit:22.9256}
    .fil5 {fill:url(#id0)}
    .fil13 {fill:url(#id1)}
    .fil10 {fill:url(#id2)}
    .fil24 {fill:url(#id3)}
    .fil9 {fill:url(#id4)}
    .fil14 {fill:url(#id5)}
    .fil12 {fill:url(#id6)}
    .fil11 {fill:url(#id7)}
    .fil16 {fill:url(#id8)}
    .fil6 {fill:url(#id9)}
    .fil15 {fill:url(#id10)}
    .fil4 {fill:url(#id11)}
    .fil7 {fill:url(#id12)}
    .fil3 {fill:url(#id13)}
    .fil23 {fill:url(#id14)}
    .fil0 {fill:url(#id15)}
    .fil8 {fill:url(#id16)}
    .fil2 {fill:url(#id17)}
    .fil1 {fill:url(#id18)}
    .fil22 {fill:url(#id19);fill-rule:nonzero}
    .fil21 {fill:url(#id20);fill-rule:nonzero}
    .fil20 {fill:url(#id21);fill-rule:nonzero}
    .fil18 {fill:url(#id22);fill-rule:nonzero}
    .fil19 {fill:url(#id23);fill-rule:nonzero}
    .fil17 {fill:url(#id24);fill-rule:nonzero}
   ]]>
  </style>
  <linearGradient id="id0" gradientUnits="objectBoundingBox" x1="78.8903%" y1="9.85974%" x2="4.17699%" y2="115.614%">
   <stop offset="0" style="stop-opacity:1; stop-color:#46C0BF"/>
   <stop offset="1" style="stop-opacity:1; stop-color:#263242"/>
  </linearGradient>
  <linearGradient id="id1" gradientUnits="userSpaceOnUse" xlink:href="#id0" x1="6504.25" y1="7828.55" x2="6595.9" y2="8062.27">
  </linearGradient>
  <linearGradient id="id2" gradientUnits="userSpaceOnUse" xlink:href="#id0" x1="7381.94" y1="7828.54" x2="7290.29" y2="8062.26">
  </linearGradient>
  <linearGradient id="id3" gradientUnits="userSpaceOnUse" xlink:href="#id0" x1="6143.68" y1="8818.1" x2="6380.93" y2="8424.58">
  </linearGradient>
  <linearGradient id="id4" gradientUnits="userSpaceOnUse" x1="6155.61" y1="8832.98" x2="6361.83" y2="8439.46">
   <stop offset="0" style="stop-opacity:1; stop-color:#46C0BF"/>
   <stop offset="1" style="stop-opacity:1; stop-color:#263242"/>
  </linearGradient>
  <linearGradient id="id5" gradientUnits="userSpaceOnUse" xlink:href="#id0" x1="6555.69" y1="7909.13" x2="6596.13" y2="8197.68">
  </linearGradient>
  <linearGradient id="id6" gradientUnits="userSpaceOnUse" xlink:href="#id0" x1="6977.1" y1="7810.41" x2="6899.91" y2="7992.18">
  </linearGradient>
  <linearGradient id="id7" gradientUnits="userSpaceOnUse" xlink:href="#id0" x1="7330.5" y1="7909.12" x2="7290.06" y2="8197.67">
  </linearGradient>
  <linearGradient id="id8" gradientUnits="userSpaceOnUse" xlink:href="#id0" x1="6016.89" y1="6047.02" x2="5924.08" y2="15122.88">
  </linearGradient>
  <linearGradient id="id9" gradientUnits="userSpaceOnUse" xlink:href="#id0" x1="7914.86" y1="7293.43" x2="7644.66" y2="8773.19">
  </linearGradient>
  <linearGradient id="id10" gradientUnits="userSpaceOnUse" x1="6213.76" y1="8345.99" x2="7326.64" y2="8094.47">
   <stop offset="0" style="stop-opacity:1; stop-color:#F79633"/>
   <stop offset="0.439216" style="stop-opacity:1; stop-color:#F79633"/>
   <stop offset="0.619608" style="stop-opacity:1; stop-color:#F7CD33"/>
   <stop offset="1" style="stop-opacity:1; stop-color:#F79633"/>
  </linearGradient>
  <linearGradient id="id11" gradientUnits="userSpaceOnUse" x1="4643.81" y1="12609.28" x2="5884.81" y2="10688.68">
   <stop offset="0" style="stop-opacity:1; stop-color:#F79633"/>
   <stop offset="0.439216" style="stop-opacity:1; stop-color:#F79633"/>
   <stop offset="0.619608" style="stop-opacity:1; stop-color:#F7CD33"/>
   <stop offset="1" style="stop-opacity:1; stop-color:#F79633"/>
  </linearGradient>
  <linearGradient id="id12" gradientUnits="userSpaceOnUse" xlink:href="#id10" x1="7035.35" y1="7796.73" x2="7531.12" y2="7480.24">
  </linearGradient>
  <linearGradient id="id13" gradientUnits="userSpaceOnUse" xlink:href="#id11" x1="5302.03" y1="9142.22" x2="8016.19" y2="6763.92">
  </linearGradient>
  <linearGradient id="id14" gradientUnits="userSpaceOnUse" xlink:href="#id0" x1="7926.46" y1="7293.41" x2="7656.26" y2="8773.17">
  </linearGradient>
  <linearGradient id="id15" gradientUnits="userSpaceOnUse" xlink:href="#id0" x1="7719.71" y1="9415.15" x2="3851.84" y2="13425.35">
  </linearGradient>
  <linearGradient id="id16" gradientUnits="userSpaceOnUse" xlink:href="#id10" x1="6972.33" y1="7796.73" x2="6476.57" y2="7480.24">
  </linearGradient>
  <linearGradient id="id17" gradientUnits="userSpaceOnUse" xlink:href="#id11" x1="6557.22" y1="13057.65" x2="7721.65" y2="8557.95">
  </linearGradient>
  <linearGradient id="id18" gradientUnits="userSpaceOnUse" xlink:href="#id0" x1="7802.24" y1="9413.25" x2="3989.3" y2="13403.02">
  </linearGradient>
  <linearGradient id="id19" gradientUnits="userSpaceOnUse" xlink:href="#id0" x1="26672.1" y1="8985.72" x2="24347.41" y2="13074.67">
  </linearGradient>
  <linearGradient id="id20" gradientUnits="userSpaceOnUse" xlink:href="#id11" x1="20187.08" y1="14093.14" x2="24147.43" y2="8709.54">
  </linearGradient>
  <linearGradient id="id21" gradientUnits="userSpaceOnUse" xlink:href="#id11" x1="17821.13" y1="14093.14" x2="21141.73" y2="8709.54">
  </linearGradient>
  <linearGradient id="id22" gradientUnits="userSpaceOnUse" xlink:href="#id0" x1="14039.29" y1="9090.37" x2="13738.82" y2="13015.15">
  </linearGradient>
  <linearGradient id="id23" gradientUnits="userSpaceOnUse" xlink:href="#id0" x1="17607.51" y1="9014.04" x2="15193.21" y2="13028.37">
  </linearGradient>
  <linearGradient id="id24" gradientUnits="userSpaceOnUse" xlink:href="#id0" x1="12363.64" y1="9094.54" x2="10112.75" y2="13064.09">
  </linearGradient>
 </defs>
 <g id="Capa_x0020_1">
  <metadata id="CorelCorpID_0Corel-Layer"/>
  <path class="fil0" d="M5138.19 12833.25c623.1,-1.36 1116.94,-299.05 1499.39,-555.31 47.3,38.64 195.41,219.49 272.52,275.43 682.97,495.4 1093.71,-240.23 434.7,-276.38 504.71,226.44 85.65,426.46 -239.25,247.22 -119.79,-66.08 -310.08,-228.51 -357.13,-329.69 116.98,-60.82 209.93,-157.15 341.04,-206.12l44.76 -29.69c210.87,-212.6 1679.21,-222.1 1510.66,756.35 519.09,-238.69 -193.04,-1888.54 -1773.14,-784.52 -154.14,120.66 -297.74,224.26 -454.62,341.31 -138.37,103.23 -319.59,225.59 -504.42,310 -822.84,375.76 -1922.66,48.84 -2075.03,-861.47 -107.22,-640.63 352.41,-1257.7 791.7,-1587.81 78.87,-59.27 157.91,-112.73 235.45,-172.58 90.9,-70.15 522.62,-320.85 737.26,-483.38 155.84,-117.99 453.53,-269.52 553.94,-435.34 -57.14,23.56 -147.21,129.49 -261.14,216.12 -477.76,363.19 -1128.2,590.54 -1447.5,860.58 -32.91,27.83 -28.01,19.96 -64,45.65 -177.84,126.93 -378.71,365.58 -511.17,581.8 -648.81,1059.12 123.34,2090.34 1265.98,2087.83z"/>
  <path class="fil1" d="M5278.72 12813.94c623.1,-1.36 1116.94,-299.05 1499.39,-555.31 47.3,38.64 195.41,219.49 272.52,275.43 682.97,495.4 1064.86,-206.32 405.85,-242.47 504.71,226.44 114.5,392.55 -210.4,213.31 -119.79,-66.08 -310.08,-228.51 -357.13,-329.69 116.98,-60.82 209.93,-157.15 341.04,-206.12 46.1,94.43 86.78,113.89 154.13,181.84l-109.37 -211.53c210.87,-212.6 1594.88,-263.44 1426.33,715.01 519.09,-238.69 -108.71,-1847.2 -1688.81,-743.18 -154.14,120.66 -297.74,224.26 -454.62,341.31 -138.37,103.23 -319.59,225.59 -504.42,310 -822.84,375.76 -1922.66,48.84 -2075.03,-861.47 -107.22,-640.63 352.41,-1257.7 791.7,-1587.81 78.87,-59.27 157.91,-112.73 235.45,-172.58 90.9,-70.15 522.62,-320.85 737.26,-483.38 155.84,-117.99 313,-250.21 413.41,-416.03 -57.14,23.56 -147.21,129.49 -261.14,216.12 -477.76,363.19 -987.67,571.23 -1306.97,841.27 -32.91,27.83 -28.01,19.96 -64,45.65 -177.84,126.93 -378.71,365.58 -511.17,581.8 -648.81,1059.12 123.34,2090.34 1265.98,2087.83z"/>
  <path class="fil2 str0" d="M7601.63 8914.36l81.73 -67.52c26.6,289.45 -39.66,750.38 -126.28,998.08 -82.56,236.05 -325.98,538.06 -466.89,664.61 43.18,-249.38 157.69,-372.77 224.98,-529.37 -190.71,116.34 -331.98,406 -375.26,733.33 -29.48,223.01 7.22,819.11 134.37,958.82l74.05 -35.75c-35.82,-283.88 -147.68,-505.93 -106.25,-848.38 13.38,-110.6 273.81,-345.57 416.22,-559.67 389.7,-585.81 262.39,-910.81 256.8,-1401.62 -1.29,-112.76 26.3,-127.22 1.61,-256.49 -19.89,53.64 -23.91,125.14 -45.07,187.07 -21.04,61.53 -50.46,106.99 -70.01,156.89z"/>
  <path class="fil3 str0" d="M6413.46 8410c-27.62,-61.35 -1.23,-7.39 -23.99,-43.25 -3.37,-5.31 -19.55,-28.21 -24.37,-35.08 -192.94,-275.09 -143.22,-490.34 37.22,-750.99 51.72,-74.72 68.55,-56.81 118.14,-122.96 97.96,-130.68 -5.14,-264.72 -113.42,-302.17 23.38,107.77 59.36,190.64 0.85,285 -54.06,-79.82 -134.66,-447.29 -108.94,-575.75 118.96,-0.65 232.79,169.2 354.82,310.22 110.46,127.66 143.17,-39.31 532.22,-20.19 178.97,8.8 238.59,65.25 361.8,90.55 90.05,-82.91 225.34,-327.83 396.51,-306.1 97.76,133.31 -26.63,388.25 -53.09,522.39 67.97,-81.16 266.88,-478.36 103.28,-593.26 -140.19,-98.45 -436.18,226.38 -475.95,276.09 -136.34,-14.37 -220.25,-57.07 -388.22,-56.02 -162.1,1.03 -277.29,47.75 -407.75,54.03l-197.79 -209.86c-71.18,-71.72 -123.47,-170.65 -264.98,-161.56 -86.25,103.06 -43.74,296.1 -14.58,440.37 57.85,286.2 109.06,287.43 23.44,439.77 -180.37,320.9 -96.13,595.61 144.8,758.77z"/>
  <path class="fil4 str0" d="M5041.42 10720.22c365.12,97.3 503.58,104.07 661.19,385.21 197.93,353.06 75.59,687.94 85.03,912.55 30.6,-198.51 222.29,-543.25 34.9,-958.42 -196.21,-434.72 -745.8,-378.52 -781.12,-339.34z"/>
  <path class="fil5" d="M7260.69 11581.74c39.39,-98.48 -35.73,-343.86 57.94,-734.85 56.54,-236 144.09,-410.91 211.25,-612 -107,158.11 -245.58,360.03 -318.26,580.26 -76.95,233.2 -62.1,707.66 49.07,766.59z"/>
  <path class="fil6" d="M7678.75 8554.72c94.69,-41.79 198.16,-149.58 248.03,-245.69 67.43,-129.96 80.75,-278.65 45.49,-438.22 -26.65,-120.62 -80.52,-248.96 -138.11,-340.94 -109.84,-175.45 -107.75,-135.32 -56.29,-374.39 -126,47.48 -206.6,205.6 -96.16,323.07 91.5,97.32 125.36,109.48 197.36,321.51 156.75,461.54 -147.15,655.24 -200.32,754.66z"/>
  <path class="fil7" d="M7185.59 7670.38c70.52,-27.53 128.16,-74.58 201.2,-93.9 70.68,-18.68 127.05,-3.04 183.59,-9.1 -54.27,-0.81 -113.12,-46.49 -199.24,-28.92 -85.61,17.47 -153.17,71.33 -185.55,131.92z"/>
  <path class="fil8" d="M6822.09 7670.38c-70.51,-27.53 -128.16,-74.58 -201.2,-93.9 -70.67,-18.68 -127.04,-3.04 -183.58,-9.1 54.27,-0.81 113.12,-46.49 199.23,-28.92 85.62,17.47 153.18,71.33 185.55,131.92z"/>
  <path class="fil9" d="M6307.44 8411.27c-21.96,103.14 -73.32,195.45 -83.53,299.28 -9.89,100.47 23.81,170.64 28,248.13 -13.04,-72.21 -88.17,-135.92 -83.2,-256.64 4.93,-120.02 63.37,-227.79 138.73,-290.77z"/>
  <g id="_61478736">
   <path class="fil10" d="M7478.54 7967.48c-49.77,-100.38 -145.47,-131.26 -264.97,-99.7 114.57,23.61 185.08,26.57 264.97,99.7z"/>
   <path class="fil11" d="M7435.15 8107.08c-25.55,-141.42 -149.34,-188.34 -244.63,-175.27 68.05,16.64 193.95,111.36 244.63,175.27z"/>
   <path class="fil12" d="M6873.89 7939.42l45.07 -79.9c20.83,23.94 46.6,56.55 61.37,82.02 158.97,-199.34 -151.58,-171.28 -106.44,-2.12z"/>
   <g>
    <path class="fil13" d="M6407.65 7967.49c49.77,-100.38 145.47,-131.26 264.97,-99.7 -114.57,23.61 -185.08,26.57 -264.97,99.7z"/>
    <path class="fil14" d="M6451.05 8107.09c25.54,-141.42 149.33,-188.34 244.62,-175.27 -68.05,16.64 -193.95,111.36 -244.62,175.27z"/>
   </g>
  </g>
  <path class="fil15" d="M7001.87 8159.35c77.48,52.3 248.15,161.11 341.71,80.3 -83.88,-0.91 -145.74,-12.41 -204.85,-43.53 -407.41,-214.33 -69.99,-21.61 -568.4,-16.19 107.86,93.17 330.48,-26.59 382.31,-60.3l49.23 39.72z"/>
  <path class="fil16" d="M3853.23 6747.81c1561,-1111.62 3727.56,-747.34 4839.18,813.66 1111.63,1560.99 747.34,3727.55 -813.65,4839.18 -1561,1111.62 -3727.56,747.33 -4839.19,-813.66 -1111.62,-1561 -747.33,-3727.56 813.66,-4839.18zm416.58 -18.09c1497.19,-1066.18 3575.2,-716.78 4641.38,780.4 1066.19,1497.2 716.8,3575.21 -780.39,4641.39 -1497.2,1066.19 -3575.21,716.8 -4641.4,-780.4 -1066.18,-1497.19 -716.78,-3575.2 780.41,-4641.39z"/>
  <path class="fil17" d="M11503.86 12478c-206.97,0 -402.17,-38.8 -585.62,-116.41 -183.44,-77.61 -344.54,-181.1 -483.3,-310.45 -138.76,-129.35 -248.12,-282.22 -328.09,-458.61 -79.96,-176.39 -119.94,-363.36 -119.94,-560.92l0 -2307.16 402.17 0 0 2307.16c0,145.82 29.4,281.05 88.19,405.7 58.8,124.65 138.76,234.01 242.24,328.08 103.48,94.08 222.25,168.16 355.13,222.25 134.06,54.09 277.52,81.14 432.74,81.14 150.52,0 291.63,-27.05 425.69,-81.14 132.88,-54.09 249.3,-128.17 348.07,-222.25 98.78,-94.07 175.22,-203.43 231.66,-328.08 56.45,-124.65 84.67,-259.88 84.67,-405.7l0 -2307.16 402.16 0 0 2307.16c0,197.56 -39.98,384.53 -119.94,560.92 -79.96,176.39 -186.97,329.26 -321.03,458.61 -134.05,129.35 -292.8,232.84 -476.25,310.45 -183.44,77.61 -376.29,116.41 -578.55,116.41z"/>
  <polygon class="fil18" points="14124.18,8724.45 14124.18,12435.67 13722.02,12435.67 13722.02,8724.45 "/>
  <path class="fil19" d="M18289.68 8660.95l0 3774.72 -402.17 0 0 -2659.95c-65.85,84.67 -132.88,170.51 -199.91,257.53 -68.2,87.02 -135.23,172.86 -201.08,257.53l-801.98 994.83 -1224.14 -1531.05 0 2681.11 -402.17 0 0 -3795.89 1622.78 2010.83 1608.67 -1989.66z"/>
  <polygon class="fil20 str0" points="18885.06,12435.67 18885.06,8724.45 21072.28,8724.45 21072.28,9119.56 19287.23,9119.56 19287.23,10065 20486.67,10065 20486.67,10460.11 19287.23,10460.11 19287.23,12026.45 21192.23,12026.45 21192.23,12435.67 "/>
  <path class="fil21 str0" d="M21844.05 11052.78l0 1382.89 -388.06 0 0 -3711.22 1079.51 0c164.63,0 317.5,32.92 458.61,98.77 141.11,65.86 262.23,152.87 363.36,261.06 101.13,108.18 181.09,230.48 239.89,369.24 58.79,138.76 88.19,283.4 88.19,433.92 0,230.48 -52.91,438.62 -158.75,623.24 -105.83,185.79 -264.58,323.38 -476.25,412.75l331.61 424.51c56.45,70.55 121.12,154.04 194.03,250.47 72.91,96.43 148.17,195.2 225.78,296.33 77.61,101.13 151.69,199.91 222.25,293.99 70.55,94.07 131.7,176.38 183.44,246.94l-508 0 -1072.44 -1382.89 -783.17 0zm0 -1933.22l0 1524 691.45 0c103.48,0 202.25,-19.99 296.33,-59.97 94.07,-39.99 175.21,-92.9 243.42,-161.11 68.2,-68.2 122.29,-148.16 162.27,-238.71 39.99,-91.72 59.98,-188.15 59.98,-291.63 0,-108.18 -19.99,-208.14 -59.98,-302.21 -39.98,-94.08 -94.07,-175.22 -162.27,-245.77 -68.21,-70.56 -149.35,-124.65 -243.42,-164.63 -94.08,-39.98 -192.85,-59.97 -296.33,-59.97l-691.45 0z"/>
  <path class="fil22" d="M26221.21 10735.28c-75.25,-202.26 -149.34,-392.76 -222.25,-571.5 -72.9,-178.74 -149.34,-373.95 -229.3,-585.61 -28.22,70.55 -56.45,143.46 -84.67,218.72 -28.22,75.26 -58.79,157.57 -91.72,246.95 -32.93,89.37 -70.56,190.5 -112.89,303.38 -42.33,112.89 -89.37,242.25 -141.11,388.06l881.94 0zm-451.55 -2130.78c254,592.67 513.88,1211.21 779.64,1855.61 265.76,644.41 525.64,1277.06 779.64,1897.95l-359.84 98.78 -592.66 -1368.78 -1192.39 0c-94.08,225.78 -191.68,457.43 -292.81,694.97 -101.13,237.54 -198.73,466.84 -292.8,687.92l-381 -98.78 1552.22 -3767.67z"/>
  <path class="fil23" d="M7690.35 8554.7c94.69,-41.79 198.16,-149.58 248.03,-245.69 67.43,-129.96 80.75,-278.65 45.49,-438.22 -26.65,-120.62 -80.52,-248.96 -138.11,-340.94 -109.84,-175.45 -107.75,-135.32 -56.29,-374.39 -126,47.48 -206.6,205.6 -96.16,323.07 91.5,97.32 125.36,109.48 197.36,321.51 156.75,461.54 -147.15,655.24 -200.32,754.66z"/>
  <path class="fil24" d="M6318.36 8396.39c-25.26,103.14 -84.35,195.45 -96.1,299.28 -11.37,100.47 27.4,170.64 32.22,248.13 -15.01,-72.21 -101.44,-135.92 -95.73,-256.64 5.68,-120.02 72.92,-227.79 159.61,-290.77z"/>
  <path class="fil5" d="M7268.02 11581.74c39.39,-98.48 -35.73,-343.86 57.94,-734.85 56.54,-236 144.09,-410.91 211.25,-612 -107,158.11 -245.58,360.03 -318.26,580.26 -76.95,233.2 -62.1,707.66 49.07,766.59z"/>
 </g>
</svg>
